<svg width="216" height="54" viewBox="0 0 216 54" fill="none" xmlns="http://www.w3.org/2000/svg">
<path d="M32.1661 17.5L25.2781 9.868V17.5H23.0941V0.771999H25.2781V8.524L32.1901 0.771999H34.9501L27.3661 9.148L35.0221 17.5H32.1661ZM60.6453 10.876C60.6453 9.532 60.9173 8.356 61.4613 7.348C62.0053 6.324 62.7493 5.532 63.6933 4.972C64.6533 4.412 65.7173 4.132 66.8853 4.132C68.0373 4.132 69.0373 4.38 69.8853 4.876C70.7333 5.372 71.3653 5.996 71.7813 6.748V4.348H73.9893V17.5H71.7813V15.052C71.3493 15.82 70.7013 16.46 69.8373 16.972C68.9893 17.468 67.9973 17.716 66.8613 17.716C65.6933 17.716 64.6373 17.428 63.6933 16.852C62.7493 16.276 62.0053 15.468 61.4613 14.428C60.9173 13.388 60.6453 12.204 60.6453 10.876ZM71.7813 10.9C71.7813 9.908 71.5813 9.044 71.1813 8.308C70.7813 7.572 70.2373 7.012 69.5493 6.628C68.8773 6.228 68.1333 6.028 67.3173 6.028C66.5013 6.028 65.7573 6.22 65.0853 6.604C64.4133 6.988 63.8773 7.548 63.4773 8.284C63.0773 9.02 62.8773 9.884 62.8773 10.876C62.8773 11.884 63.0773 12.764 63.4773 13.516C63.8773 14.252 64.4133 14.82 65.0853 15.22C65.7573 15.604 66.5013 15.796 67.3173 15.796C68.1333 15.796 68.8773 15.604 69.5493 15.22C70.2373 14.82 70.7813 14.252 71.1813 13.516C71.5813 12.764 71.7813 11.892 71.7813 10.9ZM107.104 4.132C108.24 4.132 109.232 4.38 110.08 4.876C110.944 5.372 111.584 5.996 112 6.748V4.348H114.208V17.788C114.208 18.988 113.952 20.052 113.44 20.98C112.928 21.924 112.192 22.66 111.232 23.188C110.288 23.716 109.184 23.98 107.92 23.98C106.192 23.98 104.752 23.572 103.6 22.756C102.448 21.94 101.768 20.828 101.56 19.42H103.72C103.96 20.22 104.456 20.86 105.208 21.34C105.96 21.836 106.864 22.084 107.92 22.084C109.12 22.084 110.096 21.708 110.848 20.956C111.616 20.204 112 19.148 112 17.788V15.028C111.568 15.796 110.928 16.436 110.08 16.948C109.232 17.46 108.24 17.716 107.104 17.716C105.936 17.716 104.872 17.428 103.912 16.852C102.968 16.276 102.224 15.468 101.68 14.428C101.136 13.388 100.864 12.204 100.864 10.876C100.864 9.532 101.136 8.356 101.68 7.348C102.224 6.324 102.968 5.532 103.912 4.972C104.872 4.412 105.936 4.132 107.104 4.132ZM112 10.9C112 9.908 111.8 9.044 111.4 8.308C111 7.572 110.456 7.012 109.768 6.628C109.096 6.228 108.352 6.028 107.536 6.028C106.72 6.028 105.976 6.22 105.304 6.604C104.632 6.988 104.096 7.548 103.696 8.284C103.296 9.02 103.096 9.884 103.096 10.876C103.096 11.884 103.296 12.764 103.696 13.516C104.096 14.252 104.632 14.82 105.304 15.22C105.976 15.604 106.72 15.796 107.536 15.796C108.352 15.796 109.096 15.604 109.768 15.22C110.456 14.82 111 14.252 111.4 13.516C111.8 12.764 112 11.892 112 10.9ZM153.563 4.348V17.5H151.379V15.556C150.963 16.228 150.379 16.756 149.627 17.14C148.891 17.508 148.075 17.692 147.179 17.692C146.155 17.692 145.235 17.484 144.419 17.068C143.603 16.636 142.955 15.996 142.475 15.148C142.011 14.3 141.779 13.268 141.779 12.052V4.348H143.939V11.764C143.939 13.06 144.267 14.06 144.923 14.764C145.579 15.452 146.475 15.796 147.611 15.796C148.779 15.796 149.699 15.436 150.371 14.716C151.043 13.996 151.379 12.948 151.379 11.572V4.348H153.563ZM187.658 4.108C189.258 4.108 190.554 4.596 191.546 5.572C192.538 6.532 193.034 7.924 193.034 9.748V17.5H190.874V10.06C190.874 8.748 190.546 7.748 189.89 7.06C189.234 6.356 188.338 6.004 187.202 6.004C186.05 6.004 185.13 6.364 184.442 7.084C183.77 7.804 183.434 8.852 183.434 10.228V17.5H181.25V4.348H183.434V6.22C183.866 5.548 184.45 5.028 185.186 4.66C185.938 4.292 186.762 4.108 187.658 4.108Z" fill="#C3A4DD"/>
<path d="M12.8451 36.748V39.46H8.38106V53.5H5.02106V39.46H0.557063V36.748H12.8451ZM49.5686 50.308H42.8966L41.7926 53.5H38.2646L44.2886 36.724H48.2006L54.2246 53.5H50.6726L49.5686 50.308ZM48.6566 47.62L46.2326 40.612L43.8086 47.62H48.6566ZM91.8763 36.748V39.46H87.4123V53.5H84.0523V39.46H79.5883V36.748H91.8763ZM129.728 36.748V39.46H125.264V53.5H121.904V39.46H117.44V36.748H129.728ZM163.955 53.668C162.387 53.668 160.947 53.3 159.635 52.564C158.323 51.828 157.283 50.812 156.515 49.516C155.747 48.204 155.363 46.724 155.363 45.076C155.363 43.444 155.747 41.98 156.515 40.684C157.283 39.372 158.323 38.348 159.635 37.612C160.947 36.876 162.387 36.508 163.955 36.508C165.539 36.508 166.979 36.876 168.275 37.612C169.587 38.348 170.619 39.372 171.371 40.684C172.139 41.98 172.523 43.444 172.523 45.076C172.523 46.724 172.139 48.204 171.371 49.516C170.619 50.812 169.587 51.828 168.275 52.564C166.963 53.3 165.523 53.668 163.955 53.668ZM163.955 50.668C164.963 50.668 165.851 50.444 166.619 49.996C167.387 49.532 167.987 48.876 168.419 48.028C168.851 47.18 169.067 46.196 169.067 45.076C169.067 43.956 168.851 42.98 168.419 42.148C167.987 41.3 167.387 40.652 166.619 40.204C165.851 39.756 164.963 39.532 163.955 39.532C162.947 39.532 162.051 39.756 161.267 40.204C160.499 40.652 159.899 41.3 159.467 42.148C159.035 42.98 158.819 43.956 158.819 45.076C158.819 46.196 159.035 47.18 159.467 48.028C159.899 48.876 160.499 49.532 161.267 49.996C162.051 50.444 162.947 50.668 163.955 50.668ZM206.799 53.668C205.231 53.668 203.791 53.3 202.479 52.564C201.167 51.828 200.127 50.812 199.359 49.516C198.591 48.204 198.207 46.724 198.207 45.076C198.207 43.444 198.591 41.98 199.359 40.684C200.127 39.372 201.167 38.348 202.479 37.612C203.791 36.876 205.231 36.508 206.799 36.508C208.383 36.508 209.823 36.876 211.119 37.612C212.431 38.348 213.463 39.372 214.215 40.684C214.983 41.98 215.367 43.444 215.367 45.076C215.367 46.724 214.983 48.204 214.215 49.516C213.463 50.812 212.431 51.828 211.119 52.564C209.807 53.3 208.367 53.668 206.799 53.668ZM206.799 50.668C207.807 50.668 208.695 50.444 209.463 49.996C210.231 49.532 210.831 48.876 211.263 48.028C211.695 47.18 211.911 46.196 211.911 45.076C211.911 43.956 211.695 42.98 211.263 42.148C210.831 41.3 210.231 40.652 209.463 40.204C208.695 39.756 207.807 39.532 206.799 39.532C205.791 39.532 204.895 39.756 204.111 40.204C203.343 40.652 202.743 41.3 202.311 42.148C201.879 42.98 201.663 43.956 201.663 45.076C201.663 46.196 201.879 47.18 202.311 48.028C202.743 48.876 203.343 49.532 204.111 49.996C204.895 50.444 205.791 50.668 206.799 50.668Z" fill="#47003A"/>
</svg>
